<?xml version="1.0" encoding="utf-8"?>
<!-- Generator: Adobe Illustrator 23.0.3, SVG Export Plug-In . SVG Version: 6.00 Build 0)  -->
<svg version="1.1" id="Capa_1" xmlns="http://www.w3.org/2000/svg" xmlns:xlink="http://www.w3.org/1999/xlink" x="0px" y="0px"
	 viewBox="0 0 750 1334" style="enable-background:new 0 0 750 1334;" xml:space="preserve">
<style type="text/css">
	.st0{fill:#FFFFFF;}
	.st1{fill:none;stroke:#DE9FFF;stroke-width:2;stroke-miterlimit:10;}
	.st2{fill:#FF7FF9;}
	.st3{fill:#FFFFFF;stroke:#DE9FFF;stroke-miterlimit:10;}
</style>
<path class="st0" d="M240.4,748.9c0-44.4,0-88.8,0-133.2c97.2,0,194.4,0,291.6,0c0,44.4,0,88.8,0,133.2
	C434.8,748.9,337.6,748.9,240.4,748.9z M306,739.3c0-5.6,0-10.4,0-15.3c0-2.4,1.3-5.1-1.7-6.6c-2.3-1.2-4.5-2.9-6.9-3.1
	c-8.9-1.1-16.4,3.3-20.5,11.4c-4.6,9.1,0.7,18.1,10.9,17.8c4.3-0.1,8.6-1.7,12.9-2.7c-0.2,3.2,2.5,3.2,5.2,2.7
	c2.6-0.4,5.1-1.2,8.1-1.9c0.6,1,1.3,2.9,2.6,4.1c0.9,0.9,2.7,0.9,4.1,1.2c0.2-1.1,0.8-2.4,0.6-3.4c-0.7-2.8-2-5.4-2.6-8.3
	c-0.4-1.6-0.3-3.6,0.3-5.1c4.4-10.4,5.7-21.4,6.9-32.4c0.1-1.1,0-2.2-0.3-3.3c-0.5-2-1.8-3.2-4.1-3.3c-4-0.2-6.5,1.4-8.4,6.2
	c-4.2,10.7-5.2,21.7-3,32.9C310.9,734.3,309.2,736.5,306,739.3z M397.2,740.5c1.1,1.8,2.2,3.3,3.1,5c1.1,2,2.9,1.8,4.4,1.1
	c0.6-0.3,0.8-2.2,0.6-3.3c-0.7-2.9-2-5.7-2.7-8.5c-0.3-1.2-0.4-2.8,0.1-4c4.5-9.7,5.6-20.2,7-30.5c0.3-1.8,0.2-3.6,0-5.4
	c-0.3-2.3-1.7-3.7-4.2-3.8c-3.9-0.2-6.4,1.4-8.2,6.1c-4.3,10.7-5.1,21.7-3.2,33c0.7,4.3-0.3,6.7-4.7,9.4c0.1-1.1,0.2-2.1,0.3-3
	c0.4-5.4,0.8-10.7,1-16.1c0-0.9-1.1-2.4-2-2.7c-1.5-0.6-3.2-0.2-3.8,1.8c-0.3,1-0.6,1.9-0.8,2.9c-1.2,4.7-2.9,9.2-6.9,12.3
	c-2.4,1.9-5.2,4.1-8.4,2.7c-3.2-1.4-3.5-4.9-3.5-8.1c0-3.7,0.3-7.4,0.1-11.1c-0.1-0.9-1.5-2.5-2.4-2.5c-0.9-0.1-2.8,1.3-2.8,2.1
	c-0.3,5.3-0.6,10.6-0.2,15.8c0.3,4.5,2.9,7.5,7.6,8.3c5.6,1,10.9,0.8,15.9-3.5c-0.2,3.7,1.6,4.3,4.1,3.8c0.3-0.1,0.7-0.2,0.9-0.1
	C391.8,744.8,394.5,743.3,397.2,740.5z M488,713.4c-2-1.7-3.9-3.7-6.1-5.1c-3.6-2.3-7.6-2.7-11.4-0.6c-3.7,2.1-4.1,5.9-3.9,9.7
	c0.1,1.2,0.3,2.4,0.5,3.5c1.9,8.5,7.5,14.6,13.6,20.3c2.2,2,5.8,2,7.4,0.3c3.6-3.9,7.4-7.7,10.4-12c2.1-2.9,3.8-6.4,4.5-9.9
	c1.1-4.9-1.6-7.7-6.6-7.6C493.7,712,490.9,712.9,488,713.4z M300.6,657.3c6.5-1.1,12.6-2.7,17.6-6.7c6.8-5.4,7.8-17.2,2-23.6
	c-5.9-6.5-16.4-5-23.3,0.5c-0.4,0.3-0.7,1.2-0.6,1.6c1.7,5.2-3.4,10.3-0.5,15.6c0.4,0.7,0,1.8-0.1,2.7c-0.4,6.7-0.8,13.3-1.2,20
	c-0.1,1.7,0.3,2.9,2.4,2.9c1.9,0,3-0.4,3.1-2.6C300,664.3,300.3,661,300.6,657.3z M349.9,663.8c-0.1,3.3,1,4.7,3.8,4.1
	c2.8-0.5,1.7-2.7,1.7-4.3c0-5.1-0.2-10.2-0.2-15.3c0-2.4,1.3-5.1-1.7-6.6c-2.2-1.1-4.3-2.8-6.6-3.1c-9.1-1.3-17.7,3.9-21.3,12.5
	c-3.7,8.6,1.6,16.6,11,16.9C341.3,668.1,345.5,666.7,349.9,663.8z M435.2,739.4c-0.1,3.3,1,4.7,3.8,4.2c2.8-0.5,1.7-2.7,1.7-4.3
	c0-5.1-0.2-10.2-0.2-15.3c0-2.4,1.3-5.1-1.7-6.6c-2.2-1.1-4.3-2.8-6.6-3.1c-11-1.7-18.3,5.7-21.2,12.2c-3.9,8.7,1.4,16.8,10.9,17.1
	C426.5,743.7,430.7,742.3,435.2,739.4z M247,713c0,5.2,0,10.4,0,15.6c0,7.9,7.3,16.6,15.1,17.9c1.2,0.2,2.6-0.4,3.9-0.6
	c-0.2-1.1-0.2-2.3-0.6-3.3c-0.5-1-1.3-2-2.3-2.5c-4-2.3-6.9-5.4-8.9-9.5c-4-7.9-4.9-16.4-3.8-25.1c0.8-6.2,2-12.3,6.2-17.2
	c3.8-4.5,7-4.3,10.1,0.8c1,1.6,1.8,3.4,2.3,5.2c0.6,2.4,2,3.1,4.2,2.8c2.3-0.4,2-2.1,1.6-3.7c-0.6-2.7-1-5.5-1.9-8.1
	c-2.8-7.3-9.2-9.4-15.6-4.9c-6.4,4.4-10.1,10.6-10.2,18.6C246.9,703.6,247,708.3,247,713z M457.6,655.8c-1.9,4.2-3.8,8.4-5.6,12.7
	c-0.4,1.1-0.9,3.1-0.5,3.3c1.1,0.6,2.7,1,3.9,0.6c0.9-0.3,1.7-1.6,2.3-2.6c4.2-6.9,5.7-14.6,7.1-22.4c0.4-2.1,0.7-4.4,0.5-6.5
	c-0.1-1.1-1.5-2.5-2.6-2.9c-1.8-0.6-2.7,0.6-3.4,2.4c-1.2,2.9-2.5,5.8-4.4,8.3c-2,2.5-4.9,4.6-8.4,3.4c-3.4-1.1-3.7-4.5-4-7.5
	c-0.4-3.4-0.6-6.8-0.8-10.1c-0.1-1.8-1.2-2.7-2.8-2.3c-1,0.3-2.6,1.4-2.6,2.1c0.1,4.9,0,10,1.1,14.8c1,4.4,4.4,7.4,9.3,7.6
	C450,656.7,453.3,656.1,457.6,655.8z M392.8,638.5c0,1.4,0,2.5,0,3.6c0,7.8,0.1,15.6,0.1,23.4c0,2.1,0.6,3.1,2.9,3.1
	c2.3,0,2.6-1.2,2.6-3.1c-0.1-5.3-0.1-10.6-0.1-15.9c0-3.9,0-7.7,0-11.5c2.9-0.3,5.4-0.3,7.9-0.8c0.9-0.2,1.7-1.2,2.6-1.8
	c-0.9-0.6-1.8-1.7-2.8-1.8c-2.5-0.3-5.1-0.1-7.8-0.1c-0.3-4-0.7-7.8-0.9-11.6c-0.1-2.4-0.8-3.9-3.5-3.5c-2.9,0.4-2,2.5-1.9,4.2
	c0.2,3.8,0.6,7.5,0.9,11.5c-1.8,0.1-3.3,0-4.7,0.4c-0.8,0.2-1.3,1.4-1.9,2.2c0.7,0.6,1.3,1.4,2.1,1.6
	C389.5,638.7,391,638.5,392.8,638.5z M450.4,714.1c0,1.3,0,2.4,0,3.5c0,7.9,0.1,15.8,0.1,23.7c0,2,0.7,2.9,2.8,2.9
	c2.2,0,2.7-1,2.7-3c-0.1-5.3-0.1-10.6-0.1-15.9c0-3.9,0-7.7,0-11.6c2.8-0.3,5.3-0.3,7.8-0.8c1-0.2,1.8-1.3,2.7-2
	c-0.9-0.6-1.8-1.6-2.7-1.7c-2.5-0.2-5.1-0.1-7.8-0.1c-0.3-4.2-0.6-8.3-1.1-12.3c-0.1-1-1.2-2.4-2.1-2.6c-2.4-0.7-3.5,0.4-3.3,3
	c0.3,4.1,0.6,8.3,1,12.6c-1.7,0.1-3.1-0.1-4.3,0.3c-0.9,0.3-1.5,1.4-2.3,2.1c0.8,0.6,1.4,1.5,2.3,1.7
	C447.3,714.3,448.7,714.1,450.4,714.1z M346.7,742.8c0-0.2,0.1-0.3,0.1-0.5c1.6-0.1,3.2,0,4.8-0.3c1.4-0.2,3.3-0.1,3.2-2.3
	c-0.2-2.2-2-1.7-3.5-1.8c-3.3-0.3-6.8-0.2-10-1.1c-5.1-1.5-6.3-6.2-3-10.4c2.7-3.6,6.6-5.3,10.9-6.2c1.7-0.3,3.3-0.9,4.8-1.7
	c2.1-1.1,2.2-2.7,0.1-3.7c-2.2-1-4.8-1.7-7.1-1.5c-7.6,0.7-14.9,7.9-16.7,15.9c-1.2,5.4,0.6,9.4,5.8,11.3
	C339.4,741.7,343.2,742.1,346.7,742.8z M368.9,630.7c-6.4-0.8-11.5,4.5-9.5,12.1c0.5,1.9,1.4,3.7,2.3,5.5c1.4,3,3.1,5.8,4.5,8.8
	c1.8,3.9,1.5,4.6-1.8,7.5c-0.6,0.5-1.3,1.9-1,2.5c0.3,0.8,1.5,1.4,2.4,1.6c2.6,0.4,4.3-1.2,5.7-3.1c2.8-3.8,2.3-7.7,0.4-11.6
	c-1.8-3.6-4-6.9-5.9-10.4c-1.3-2.4-2.4-5-0.2-7.5c1.7-1.8,5.6-1.3,8.3,0.9c0.7,0.6,1.1,1.6,1.8,2c1.8,1,3.6,2.1,5.5,2.4
	c1.8,0.3,2.9-1.8,1.6-3C378.8,634.4,375.1,630,368.9,630.7z M414.4,659.5c-0.3,0-0.7,0-1,0c0.2,2.3,0.2,4.6,0.5,6.9
	c0.3,2,2,2.6,3.6,2.1c0.9-0.3,1.9-1.7,2-2.7c0.3-3.2,0.2-6.4,0.3-9.6c0.1-2.3,0-4.7,0.6-6.8c1.3-4.6,4.6-7.3,9.4-8.1
	c0.9-0.1,1.6-1.4,2.4-2.1c-0.9-0.6-2-1.9-2.8-1.8c-2.4,0.3-4.9,0.9-7.1,1.8c-1.6,0.7-2.9,1.7-5,1.1c-1.5-0.5-3,0-3,2.2
	C414.4,648.2,414.4,653.8,414.4,659.5z M509.2,735.1c-0.2,0-0.4,0-0.7,0c0,2-0.1,4,0,6c0.1,2.1,1.3,3.2,3.5,3.1
	c2.3-0.1,2.3-1.7,2.4-3.4c0.1-3.7,0.2-7.4,0.3-11.1c0.3-7.9,2.7-10.8,10.3-12.8c0.8-0.2,1.5-1.3,2.2-2c-0.8-0.7-1.8-1.9-2.5-1.8
	c-2.5,0.3-5.1,0.9-7.5,1.8c-1.6,0.6-2.9,1.7-5,1.1c-1.5-0.5-3.1,0-3.1,2.1C509.2,723.7,509.2,729.4,509.2,735.1z"/>
<path class="st1" d="M306,739.3c3.3-2.8,4.9-4.9,4.1-8.9c-2.2-11.2-1.2-22.3,3-32.9c1.9-4.9,4.4-6.5,8.4-6.2
	c2.2,0.1,3.5,1.3,4.1,3.3c0.3,1,0.4,2.2,0.3,3.3c-1.2,11-2.5,22-6.9,32.4c-0.6,1.5-0.7,3.5-0.3,5.1c0.6,2.8,1.9,5.5,2.6,8.3
	c0.3,1-0.4,2.2-0.6,3.4c-1.4-0.4-3.2-0.4-4.1-1.2c-1.3-1.2-2-3.1-2.6-4.1c-3,0.7-5.5,1.5-8.1,1.9c-2.7,0.5-5.4,0.5-5.2-2.7
	c-4.3,0.9-8.6,2.5-12.9,2.7c-10.2,0.3-15.5-8.7-10.9-17.8c4.1-8.1,11.6-12.5,20.5-11.4c2.4,0.3,4.7,2,6.9,3.1c3,1.6,1.7,4.3,1.7,6.6
	C305.9,728.8,306,733.7,306,739.3z M318.4,699.4c-2.8,5.7-3.8,14.4-2.3,20C318.2,712.6,319.7,706.5,318.4,699.4z"/>
<path class="st1" d="M397.2,740.5c-2.7,2.8-5.4,4.2-8.8,1.7c-0.2-0.1-0.6,0-0.9,0.1c-2.6,0.5-4.4-0.1-4.1-3.8
	c-5,4.3-10.4,4.4-15.9,3.5c-4.7-0.8-7.3-3.8-7.6-8.3c-0.3-5.3-0.1-10.6,0.2-15.8c0-0.8,1.9-2.1,2.8-2.1c0.9,0,2.3,1.6,2.4,2.5
	c0.2,3.7-0.1,7.4-0.1,11.1c0,3.2,0.2,6.6,3.5,8.1c3.2,1.4,5.9-0.8,8.4-2.7c4-3.1,5.7-7.6,6.9-12.3c0.3-1,0.6-1.9,0.8-2.9
	c0.6-2,2.3-2.4,3.8-1.8c0.9,0.3,2,1.8,2,2.7c-0.2,5.4-0.6,10.7-1,16.1c-0.1,0.9-0.2,1.9-0.3,3c4.4-2.7,5.4-5.1,4.7-9.4
	c-1.9-11.3-1.1-22.3,3.2-33c1.8-4.6,4.3-6.2,8.2-6.1c2.5,0.1,3.9,1.5,4.2,3.8c0.2,1.8,0.3,3.6,0,5.4c-1.5,10.4-2.6,20.8-7,30.5
	c-0.5,1.1-0.4,2.7-0.1,4c0.8,2.9,2,5.7,2.7,8.5c0.3,1,0,3-0.6,3.3c-1.5,0.7-3.3,0.9-4.4-1.1C399.4,743.9,398.3,742.3,397.2,740.5z
	 M402.1,700c-2.3,6-3.6,12.1-2.1,18.6C402.1,712.6,403.7,706.5,402.1,700z"/>
<g>
	<path class="st2" d="M488,713.4c2.3-0.6,4.6-1.4,7-1.9c1.2-0.2,2.5-0.3,3.8-0.1c1.3,0.2,2.7,0.6,3.7,1.6c1.1,1,1.7,2.4,1.9,3.8
		c0.2,1.4,0,2.8-0.3,4c-0.5,2.5-1.5,4.8-2.7,7.1c-1.2,2.3-2.7,4.3-4.2,6.2c-1.5,1.9-3.2,3.7-4.8,5.5l-2.4,2.7l-0.3,0.3l-0.1,0.2
		c0,0-0.1,0.1-0.2,0.2c-0.3,0.4-0.7,0.6-1.1,0.9c-0.8,0.5-1.6,0.7-2.4,0.8c-1.6,0.2-3.2,0-4.6-0.7c-0.7-0.3-1.4-0.8-2-1.3l-1.3-1.2
		c-3.5-3.4-6.9-7.1-9.4-11.6c-1.2-2.2-2.2-4.6-2.8-7.1c-0.3-1.2-0.6-2.5-0.7-3.8c-0.1-1.3-0.1-2.6,0-3.9c0.1-1.3,0.3-2.6,0.8-4
		c0.5-1.3,1.4-2.6,2.5-3.5c0.6-0.4,1.2-0.8,1.8-1.1c0.6-0.3,1.2-0.5,1.9-0.7c1.3-0.4,2.6-0.5,3.9-0.4c2.6,0.2,5,1.4,7,2.9
		C484.8,709.8,486.3,711.7,488,713.4z M488,713.4c-2-1.4-3.8-3-5.8-4.2c-2-1.2-4.2-2-6.4-1.9c-1.1,0-2.1,0.2-3.1,0.6
		c-1,0.4-2,0.9-2.6,1.6c-1.4,1.3-1.9,3.3-1.9,5.6c0,1.1,0.1,2.3,0.2,3.3c0.2,1.1,0.4,2.2,0.8,3.3c0.6,2.2,1.6,4.2,2.7,6.1
		c2.3,3.9,5.5,7.3,8.9,10.6l1.3,1.2c0.3,0.3,0.6,0.5,1,0.7c0.7,0.3,1.6,0.5,2.4,0.4c0.4-0.1,0.7-0.2,1-0.3c0.1-0.1,0.2-0.2,0.3-0.2
		c0,0,0.1-0.1,0.1-0.1l0.2-0.2l0.3-0.3c0.8-0.9,1.7-1.8,2.5-2.6c1.7-1.7,3.3-3.4,4.8-5.2c0.8-0.9,1.5-1.8,2.2-2.7
		c0.7-0.9,1.4-1.8,2-2.8c1.2-1.9,2.2-4,2.8-6.2c0.4-1.1,0.6-2.1,0.5-3.1c0-1-0.3-1.9-1-2.6c-0.6-0.7-1.6-1.2-2.6-1.5
		c-1.1-0.3-2.2-0.3-3.4-0.3C492.8,712.7,490.4,713.2,488,713.4z"/>
</g>
<g>
	<g>
		<path class="st2" d="M300.6,657.3c0,2.9,0.1,5.6,0.1,8.3l0,2c0,0.7,0,1.6-0.5,2.4c-0.3,0.4-0.7,0.7-1.1,0.9
			c-0.4,0.2-0.8,0.3-1.2,0.3c-0.4,0-0.7,0.1-1.1,0.1c-0.4,0-0.8,0-1.3-0.2c-0.5-0.2-1-0.5-1.3-1c-0.3-0.5-0.5-0.9-0.5-1.4
			c-0.1-0.4-0.1-0.8-0.1-1.2l0-1l0.1-4.1c0-2.7,0.2-5.5,0.2-8.2l0.1-4.1l0.1-2l0-0.5l0-0.3l0-0.3l0.1-1.1c0-0.3,0-0.5,0-0.4
			c0,0,0,0,0,0.1c0,0,0,0.1,0,0.1l-0.1-0.1l-0.3-0.6c-0.2-0.4-0.3-0.8-0.5-1.2c-0.1-0.4-0.2-0.8-0.3-1.2c-0.3-1.7,0-3.3,0.3-4.7
			c0.3-1.4,0.7-2.7,1-3.9c0.3-1.2,0.4-2.3,0.2-3.3l-0.2-0.8c-0.2-0.7-0.1-1.1,0-1.5c0.1-0.3,0.2-0.6,0.3-0.9
			c0.1-0.3,0.3-0.6,0.6-0.9c0.1-0.1,0.1-0.2,0.2-0.2l0.1-0.1l0.1-0.1l0.2-0.2l0.9-0.7c0.6-0.4,1.2-0.8,1.9-1.2c0.7-0.3,1.3-0.7,2-1
			c2.7-1.2,5.6-2,8.7-2.1c1.5-0.1,3,0.1,4.6,0.4c1.5,0.4,3,0.9,4.3,1.8c2.7,1.6,4.7,4.2,6,6.9c1.3,2.8,1.6,5.8,1.4,8.8
			c-0.2,2.9-1.1,5.8-2.7,8.4c-0.4,0.6-0.8,1.2-1.3,1.8c-0.5,0.6-1,1.1-1.5,1.6c-1.1,1-2.3,1.8-3.5,2.5
			C311.5,655.8,306,656.9,300.6,657.3z M300.6,657.3c5.3-1.3,10.6-2.9,14.9-6c1.1-0.8,2.1-1.6,3-2.5c0.4-0.5,0.8-1,1.2-1.5
			c0.3-0.5,0.7-1,1-1.6c1.1-2.2,1.8-4.7,1.8-7.2c0-0.6,0-1.2-0.1-1.9c0-0.6-0.2-1.2-0.3-1.8c-0.1-0.6-0.3-1.2-0.4-1.8
			c-0.2-0.6-0.4-1.2-0.7-1.7c-1-2.2-2.6-4-4.7-5.1c-1-0.6-2.1-1-3.3-1.3c-1.2-0.2-2.4-0.4-3.6-0.3c-2.4,0.1-4.9,0.8-7.1,1.8
			c-0.6,0.2-1.1,0.6-1.7,0.8c-0.5,0.3-1.1,0.6-1.6,1l-0.8,0.6l-0.2,0.1l0,0l0,0c0,0,0,0,0.1-0.1c0,0,0,0,0,0c0,0,0,0.1,0,0.1
			c0,0,0,0,0-0.4l0.3,1.2c0.3,1.7,0.1,3.4-0.3,4.8c-0.3,1.5-0.8,2.8-1.1,4c-0.3,1.2-0.5,2.3-0.3,3.4c0,0.3,0.1,0.5,0.1,0.8
			c0.1,0.2,0.1,0.5,0.3,0.7l0.2,0.4l0.2,0.4c0.1,0.2,0.1,0.4,0.2,0.6c0.1,0.7,0,1.2,0,1.6c-0.1,0.8-0.2,1.1-0.2,1.9l-0.2,2l-0.4,4.1
			c-0.2,2.7-0.5,5.4-0.7,8.2l-0.4,4.1c-0.1,0.7-0.2,1.4-0.1,1.8c0.1,0.5,0.1,0.6,0.4,0.8c0.3,0.2,1,0.2,1.6,0.2c0.6,0,1-0.1,1.3-0.4
			c0.3-0.3,0.4-0.9,0.4-1.5l0.2-2.1L300.6,657.3z"/>
	</g>
</g>
<path class="st1" d="M349.9,663.8c-4.4,2.9-8.6,4.3-13.4,4.1c-9.4-0.3-14.7-8.2-11-16.9c3.6-8.6,12.2-13.8,21.3-12.5
	c2.3,0.3,4.4,2,6.6,3.1c3,1.6,1.7,4.3,1.7,6.6c0.1,5.1,0.2,10.2,0.2,15.3c0,1.6,1.1,3.8-1.7,4.3C350.9,668.4,349.9,667,349.9,663.8z
	"/>
<path class="st1" d="M435.2,739.4c-4.4,3-8.6,4.3-13.4,4.2c-9.5-0.3-14.8-8.4-10.9-17.1c2.9-6.5,10.2-13.9,21.2-12.2
	c2.3,0.4,4.4,2,6.6,3.1c3,1.5,1.7,4.3,1.7,6.6c0.1,5.1,0.2,10.2,0.2,15.3c0,1.6,1.1,3.8-1.7,4.3C436.2,744,435,742.7,435.2,739.4z"
	/>
<path class="st1" d="M247,713c0-4.7-0.1-9.4,0-14.1c0.1-8,3.8-14.2,10.2-18.6c6.4-4.5,12.9-2.4,15.6,4.9c1,2.6,1.3,5.4,1.9,8.1
	c0.4,1.6,0.7,3.4-1.6,3.7c-2.2,0.4-3.6-0.4-4.2-2.8c-0.4-1.8-1.3-3.6-2.3-5.2c-3.1-5-6.3-5.2-10.1-0.8c-4.2,5-5.4,11-6.2,17.2
	c-1.1,8.7-0.2,17.1,3.8,25.1c2,4,4.9,7.2,8.9,9.5c0.9,0.5,1.8,1.5,2.3,2.5c0.5,1,0.5,2.2,0.6,3.3c-1.3,0.2-2.7,0.8-3.9,0.6
	c-7.8-1.3-15-10-15.1-17.9C247,723.4,247,718.2,247,713z"/>
<path class="st1" d="M457.6,655.8c-4.3,0.4-7.6,0.9-10.9,0.8c-4.9-0.1-8.3-3.1-9.3-7.6c-1.1-4.8-1-9.8-1.1-14.8
	c0-0.7,1.6-1.8,2.6-2.1c1.6-0.4,2.6,0.5,2.8,2.3c0.2,3.4,0.4,6.8,0.8,10.1c0.4,3,0.7,6.3,4,7.5c3.5,1.2,6.4-0.9,8.4-3.4
	c1.9-2.4,3.3-5.4,4.4-8.3c0.7-1.8,1.6-3,3.4-2.4c1.1,0.4,2.5,1.8,2.6,2.9c0.3,2.1-0.1,4.4-0.5,6.5c-1.4,7.8-2.9,15.5-7.1,22.4
	c-0.6,1-1.3,2.3-2.3,2.6c-1.2,0.3-2.8,0-3.9-0.6c-0.4-0.2,0-2.3,0.5-3.3C453.8,664.2,455.7,660,457.6,655.8z"/>
<path class="st1" d="M392.8,638.5c-1.8,0-3.3,0.2-4.6-0.1c-0.8-0.2-1.4-1-2.1-1.6c0.6-0.8,1.1-1.9,1.9-2.2c1.4-0.4,2.9-0.3,4.7-0.4
	c-0.3-4-0.7-7.8-0.9-11.5c-0.1-1.7-0.9-3.8,1.9-4.2c2.7-0.4,3.4,1.1,3.5,3.5c0.2,3.8,0.6,7.6,0.9,11.6c2.7,0,5.2-0.2,7.8,0.1
	c1,0.1,1.9,1.2,2.8,1.8c-0.9,0.6-1.6,1.6-2.6,1.8c-2.4,0.4-4.9,0.5-7.9,0.8c0,3.8,0,7.7,0,11.5c0,5.3,0,10.6,0.1,15.9
	c0,1.8-0.3,3.1-2.6,3.1c-2.3,0-2.9-1-2.9-3.1c0-7.8,0-15.6-0.1-23.4C392.8,641,392.8,639.9,392.8,638.5z"/>
<path class="st1" d="M450.4,714.1c-1.7,0-3.1,0.2-4.4-0.1c-0.8-0.2-1.5-1.1-2.3-1.7c0.8-0.7,1.4-1.8,2.3-2.1
	c1.2-0.4,2.5-0.2,4.3-0.3c-0.3-4.3-0.7-8.4-1-12.6c-0.2-2.7,0.8-3.7,3.3-3c0.9,0.2,1.9,1.6,2.1,2.6c0.5,4,0.8,8.1,1.1,12.3
	c2.7,0,5.3-0.2,7.8,0.1c1,0.1,1.8,1.1,2.7,1.7c-0.9,0.7-1.7,1.8-2.7,2c-2.4,0.5-4.9,0.5-7.8,0.8c0,3.9,0,7.8,0,11.6
	c0,5.3,0,10.6,0.1,15.9c0,1.9-0.4,3-2.7,3c-2.1,0-2.8-1-2.8-2.9c0-7.9,0-15.8-0.1-23.7C450.4,716.5,450.4,715.4,450.4,714.1z"/>
<path class="st1" d="M346.7,742.8c-3.6-0.8-7.3-1.1-10.7-2.4c-5.2-1.9-7-5.9-5.8-11.3c1.8-8,9.1-15.2,16.7-15.9
	c2.3-0.2,4.9,0.6,7.1,1.5c2.1,1,2,2.6-0.1,3.7c-1.5,0.8-3.2,1.4-4.8,1.7c-4.4,0.8-8.2,2.6-10.9,6.2c-3.2,4.2-2,8.9,3,10.4
	c3.2,1,6.7,0.8,10,1.1c1.5,0.1,3.3-0.4,3.5,1.8c0.2,2.2-1.8,2.1-3.2,2.3c-1.6,0.2-3.2,0.2-4.8,0.3
	C346.8,742.5,346.8,742.7,346.7,742.8z"/>
<path class="st1" d="M368.9,630.7c6.2-0.7,10,3.8,14,7.6c1.3,1.2,0.3,3.3-1.6,3c-1.9-0.3-3.7-1.4-5.5-2.4c-0.7-0.4-1.1-1.4-1.8-2
	c-2.6-2.1-6.6-2.7-8.3-0.9c-2.3,2.4-1.1,5.1,0.2,7.5c1.9,3.5,4.1,6.8,5.9,10.4c1.9,3.8,2.4,7.8-0.4,11.6c-1.4,1.9-3.1,3.5-5.7,3.1
	c-0.9-0.1-2.1-0.8-2.4-1.6c-0.3-0.6,0.4-1.9,1-2.5c3.3-2.9,3.6-3.6,1.8-7.5c-1.4-3-3-5.8-4.5-8.8c-0.9-1.8-1.8-3.6-2.3-5.5
	C357.4,635.2,362.4,629.9,368.9,630.7z"/>
<path class="st1" d="M414.4,659.5c0-5.7,0-11.3,0-17c0-2.2,1.5-2.6,3-2.2c2,0.6,3.3-0.4,5-1.1c2.3-0.9,4.7-1.5,7.1-1.8
	c0.9-0.1,1.9,1.2,2.8,1.8c-0.8,0.7-1.5,1.9-2.4,2.1c-4.8,0.8-8.1,3.4-9.4,8.1c-0.6,2.2-0.5,4.5-0.6,6.8c-0.1,3.2,0,6.4-0.3,9.6
	c-0.1,1-1.1,2.4-2,2.7c-1.6,0.6-3.3-0.1-3.6-2.1c-0.4-2.3-0.4-4.6-0.5-6.9C413.7,659.5,414,659.5,414.4,659.5z"/>
<path class="st1" d="M509.2,735.1c0-5.7,0-11.3,0-17c0-2.2,1.6-2.6,3.1-2.1c2,0.6,3.3-0.5,5-1.1c2.4-0.9,4.9-1.5,7.5-1.8
	c0.7-0.1,1.7,1.2,2.5,1.8c-0.7,0.7-1.3,1.8-2.2,2c-7.6,2.1-10,5-10.3,12.8c-0.1,3.7-0.2,7.4-0.3,11.1c0,1.7-0.1,3.2-2.4,3.4
	c-2.3,0.1-3.4-1-3.5-3.1c-0.1-2,0-4,0-6C508.7,735.1,509,735.1,509.2,735.1z"/>
<path class="st0" d="M318.4,699.4c1.3,7.1-0.1,13.2-2.3,20C314.5,713.8,315.6,705.1,318.4,699.4z"/>
<path class="st0" d="M402.1,700c1.6,6.5,0,12.5-2.1,18.6C398.5,712.1,399.8,706,402.1,700z"/>
<path class="st3" d="M293.1,723.9c3.8,3.3-0.4,5.9-5.9,8.3C283.8,728.9,287.2,726.3,293.1,723.9z"/>
<path class="st3" d="M428.1,723.9c3.8,3.3-0.4,5.9-5.9,8.3C418.7,728.9,422.2,726.3,428.1,723.9z"/>
<path class="st3" d="M342.9,648.2c3.8,3.3-0.4,5.9-5.9,8.3C333.5,653.3,337,650.6,342.9,648.2z"/>
</svg>
